<?xml version="1.0" encoding="utf-8"?>
<!-- Generator: Adobe Illustrator 25.4.1, SVG Export Plug-In . SVG Version: 6.00 Build 0)  -->
<svg version="1.1" id="Calque_1" xmlns="http://www.w3.org/2000/svg" xmlns:xlink="http://www.w3.org/1999/xlink" x="0px" y="0px"
	 viewBox="0 0 18 18" style="enable-background:new 0 0 18 18;" xml:space="preserve">
<path  d="M17.9,5.3c0-0.8-0.1-1.3-0.3-1.8c0,0,0,0,0,0c0-0.1-0.1-0.2-0.1-0.3c-0.2-0.6-0.5-1.1-1-1.6
	c-0.5-0.5-1-0.8-1.6-1c-0.6-0.2-1.2-0.4-2.2-0.4C11.8,0,11.4,0,9,0C6.6,0,6.3,0,5.3,0.1c-1,0-1.6,0.2-2.2,0.4C2.5,0.7,2,1,1.5,1.5
	C1,2,0.7,2.5,0.5,3.1c0,0.1-0.1,0.2-0.1,0.3c0,0,0,0,0,0C0.2,4,0.1,4.5,0.1,5.3C0,6.3,0,6.6,0,9c0,2.4,0,2.8,0.1,3.7
	c0,1,0.2,1.6,0.4,2.2c0.2,0.6,0.5,1.1,1,1.6c0.5,0.5,1,0.8,1.6,1c0.6,0.2,1.2,0.4,2.2,0.4C6.3,18,6.6,18,9,18c2.4,0,2.7,0,3.7-0.1
	c1,0,1.6-0.2,2.2-0.4c0.6-0.2,1.1-0.5,1.6-1c0.5-0.5,0.8-1,1-1.6c0.2-0.6,0.4-1.2,0.4-2.2c0-1,0.1-1.3,0.1-3.7
	C18,6.6,18,6.3,17.9,5.3z M3.7,2C4,1.9,4.5,1.7,5.4,1.7c1,0,1.2-0.1,3.6-0.1c2.4,0,2.7,0,3.6,0.1c0.9,0,1.4,0.2,1.7,0.3
	c0.4,0.2,0.7,0.4,1,0.7c0.2,0.2,0.3,0.4,0.4,0.5L9,8.3L2.2,3.2C2.3,3,2.5,2.8,2.7,2.7C3,2.3,3.3,2.2,3.7,2z M16.3,12.6
	c0,0.9-0.2,1.3-0.3,1.7c-0.2,0.4-0.4,0.7-0.7,1c-0.3,0.3-0.6,0.5-1,0.7c-0.3,0.1-0.8,0.3-1.7,0.3c-0.9,0-1.2,0.1-3.6,0.1
	c-2.4,0-2.7,0-3.6-0.1c-0.9,0-1.4-0.2-1.7-0.3c-0.4-0.2-0.7-0.4-1-0.7c-0.3-0.3-0.5-0.6-0.7-1c-0.1-0.3-0.3-0.8-0.3-1.7
	c0-1-0.1-1.2-0.1-3.6c0-2.4,0-2.7,0.1-3.6c0-0.1,0-0.1,0-0.2l6.7,5c0.2,0.1,0.4,0.2,0.6,0.2s0.4-0.1,0.6-0.2l6.7-5
	c0,0.1,0,0.1,0,0.2c0,1,0.1,1.2,0.1,3.6C16.4,11.4,16.4,11.7,16.3,12.6z"/>
</svg>
