<?xml version="1.0" encoding="utf-8"?>
<!-- Generator: Adobe Illustrator 25.4.1, SVG Export Plug-In . SVG Version: 6.00 Build 0)  -->
<svg version="1.1" id="Calque_1" xmlns="http://www.w3.org/2000/svg" xmlns:xlink="http://www.w3.org/1999/xlink" x="0px" y="0px"
	 viewBox="0 0 500 68.4" style="enable-background:new 0 0 500 68.4;" xml:space="preserve">
<g>
	<g>
		<path style="fill:#020203;" d="M0,68.4c18.9,0,34.2-15.3,34.2-34.2S18.9,0,0,0L0,68.4z"/>
	</g>
	<g>
		<path style="fill:#020203;" d="M82.2,13v40.1h-8.7V13H82.2z"/>
		<path style="fill:#020203;" d="M96,42.2c0,3.8,1.8,5.6,5.3,5.6c1.9,0,3.3-0.8,4.3-2.3h8.5c-1.7,5.7-6,8.5-12.8,8.5
			c-2.1,0-4-0.3-5.7-0.9c-1.7-0.6-3.2-1.5-4.5-2.7c-1.2-1.2-2.2-2.5-2.9-4.2c-0.7-1.6-1-3.4-1-5.4c0-2.1,0.3-3.9,1-5.6
			c0.6-1.7,1.6-3.1,2.8-4.2c1.2-1.2,2.6-2.1,4.3-2.7c1.7-0.6,3.6-0.9,5.7-0.9c2.1,0,4,0.3,5.6,0.9c1.7,0.6,3.1,1.5,4.3,2.7
			c1.2,1.2,2,2.6,2.7,4.4c0.6,1.7,0.9,3.7,0.9,5.8v0.9H96z M106.3,37.1c-0.3-1.2-0.9-2.2-1.8-2.9c-0.9-0.7-2-1.1-3.3-1.1
			c-1.4,0-2.5,0.4-3.3,1.1c-0.9,0.7-1.4,1.7-1.6,3H106.3z"/>
		<path style="fill:#020203;" d="M135.8,34.7c-1.6-0.8-3.2-1.3-4.7-1.3c-0.8,0-1.5,0.2-2,0.5c-0.5,0.3-0.7,0.8-0.7,1.3
			c0,0.3,0,0.5,0.1,0.7c0.1,0.2,0.3,0.3,0.5,0.5c0.3,0.2,0.7,0.3,1.2,0.4c0.5,0.1,1.2,0.3,2.1,0.5c2.4,0.5,4.2,1.3,5.4,2.6
			c1.2,1.2,1.8,2.8,1.8,4.8c0,1.4-0.3,2.8-0.9,3.9c-0.6,1.2-1.4,2.1-2.4,2.9c-1,0.8-2.3,1.4-3.7,1.8c-1.4,0.4-3,0.7-4.8,0.7
			c-3.3,0-6.6-0.9-9.9-2.8L121,45c2.4,1.7,4.8,2.5,7,2.5c0.8,0,1.5-0.2,2-0.5c0.5-0.4,0.8-0.8,0.8-1.4c0-0.3,0-0.6-0.1-0.8
			c-0.1-0.2-0.2-0.4-0.5-0.6c-0.3-0.2-0.6-0.3-1.1-0.5c-0.5-0.1-1.2-0.3-2-0.5c-2.7-0.5-4.6-1.4-5.7-2.4c-1.1-1.1-1.6-2.6-1.6-4.5
			c0-1.4,0.3-2.6,0.8-3.7c0.5-1.1,1.3-2.1,2.2-2.8c1-0.8,2.1-1.4,3.5-1.8c1.4-0.4,2.9-0.6,4.6-0.6c2.7,0,5.4,0.5,8,1.6L135.8,34.7z"
			/>
		<path style="fill:#020203;" d="M160.4,28.3h8.7v4.1c0.9-1.5,2.1-2.6,3.4-3.4c1.4-0.8,2.9-1.2,4.7-1.2c0.2,0,0.5,0,0.7,0
			s0.6,0,0.9,0.1v8.4c-1.2-0.6-2.4-0.9-3.8-0.9c-2,0-3.5,0.6-4.6,1.8c-1,1.2-1.5,3-1.5,5.3v10.6h-8.7V28.3z"/>
		<path style="fill:#020203;" d="M202.3,28.3h8.8v24.8h-8.8v-2.8c-1.9,2.4-4.4,3.5-7.6,3.5c-1.8,0-3.5-0.3-5-1
			c-1.5-0.7-2.8-1.6-4-2.8c-1.1-1.2-2-2.6-2.6-4.2c-0.6-1.6-0.9-3.4-0.9-5.3c0-1.8,0.3-3.5,0.9-5c0.6-1.6,1.5-3,2.6-4.2
			c1.1-1.2,2.4-2.1,3.9-2.8c1.5-0.7,3.2-1,5-1c3.1,0,5.7,1.1,7.7,3.2V28.3z M191.3,40.7c0,0.8,0.1,1.6,0.4,2.2
			c0.3,0.7,0.7,1.3,1.2,1.8c0.5,0.5,1.1,0.9,1.8,1.2c0.7,0.3,1.4,0.4,2.2,0.4c0.8,0,1.5-0.1,2.2-0.4c0.7-0.3,1.3-0.7,1.8-1.2
			c0.5-0.5,0.9-1.1,1.2-1.8c0.3-0.7,0.5-1.4,0.5-2.2c0-0.8-0.2-1.5-0.5-2.2c-0.3-0.7-0.7-1.3-1.2-1.8c-0.5-0.5-1.1-0.9-1.8-1.2
			c-0.7-0.3-1.4-0.4-2.2-0.4c-0.8,0-1.6,0.1-2.2,0.4c-0.7,0.3-1.3,0.7-1.8,1.2c-0.5,0.5-0.9,1.1-1.2,1.8S191.3,39.9,191.3,40.7z"/>
		<path style="fill:#020203;" d="M225.8,65.5H217V28.3h8.7v2.8c1.9-2.4,4.4-3.5,7.6-3.5c1.8,0,3.4,0.3,5,1c1.5,0.7,2.9,1.6,4,2.8
			c1.1,1.2,2,2.6,2.6,4.2c0.6,1.6,0.9,3.3,0.9,5.2s-0.3,3.5-0.9,5.1c-0.6,1.6-1.5,3-2.6,4.2c-1.1,1.2-2.4,2.1-3.9,2.8
			c-1.5,0.7-3.2,1-4.9,1c-3.1,0-5.7-1.1-7.7-3.2V65.5z M236.8,40.8c0-0.8-0.1-1.5-0.4-2.2c-0.3-0.7-0.7-1.3-1.2-1.8
			c-0.5-0.5-1.1-0.9-1.8-1.2c-0.7-0.3-1.4-0.5-2.2-0.5c-0.8,0-1.5,0.1-2.2,0.4s-1.3,0.7-1.8,1.2c-0.5,0.5-0.9,1.1-1.2,1.8
			c-0.3,0.7-0.5,1.4-0.5,2.2c0,0.8,0.1,1.5,0.4,2.2c0.3,0.7,0.7,1.3,1.2,1.8c0.5,0.5,1.1,0.9,1.8,1.2c0.7,0.3,1.4,0.5,2.2,0.5
			c0.8,0,1.5-0.1,2.2-0.4s1.3-0.7,1.8-1.2c0.5-0.5,0.9-1.1,1.2-1.8C236.6,42.2,236.8,41.5,236.8,40.8z"/>
		<path style="fill:#020203;" d="M259.6,65.5h-8.7V28.3h8.7v2.8c1.9-2.4,4.4-3.5,7.6-3.5c1.8,0,3.4,0.3,5,1c1.5,0.7,2.9,1.6,4,2.8
			c1.1,1.2,2,2.6,2.6,4.2c0.6,1.6,0.9,3.3,0.9,5.2s-0.3,3.5-0.9,5.1c-0.6,1.6-1.5,3-2.6,4.2c-1.1,1.2-2.4,2.1-3.9,2.8
			c-1.5,0.7-3.2,1-4.9,1c-3.1,0-5.7-1.1-7.7-3.2V65.5z M270.7,40.8c0-0.8-0.1-1.5-0.4-2.2c-0.3-0.7-0.7-1.3-1.2-1.8
			c-0.5-0.5-1.1-0.9-1.8-1.2c-0.7-0.3-1.4-0.5-2.2-0.5c-0.8,0-1.5,0.1-2.2,0.4s-1.3,0.7-1.8,1.2c-0.5,0.5-0.9,1.1-1.2,1.8
			c-0.3,0.7-0.5,1.4-0.5,2.2c0,0.8,0.1,1.5,0.4,2.2c0.3,0.7,0.7,1.3,1.2,1.8c0.5,0.5,1.1,0.9,1.8,1.2c0.7,0.3,1.4,0.5,2.2,0.5
			c0.8,0,1.5-0.1,2.2-0.4c0.7-0.3,1.3-0.7,1.8-1.2c0.5-0.5,0.9-1.1,1.2-1.8C270.5,42.2,270.7,41.5,270.7,40.8z"/>
		<path style="fill:#020203;" d="M283.8,40.5c0-1.8,0.4-3.5,1.1-5.1c0.7-1.6,1.8-3,3.1-4.2c1.3-1.2,2.9-2.1,4.7-2.8
			c1.8-0.7,3.8-1,6-1c2.1,0,4.1,0.3,5.9,1c1.8,0.7,3.4,1.6,4.7,2.8c1.3,1.2,2.4,2.6,3.1,4.2c0.7,1.6,1.1,3.4,1.1,5.4
			c0,2-0.4,3.8-1.1,5.4c-0.8,1.6-1.8,3-3.1,4.2c-1.3,1.2-2.9,2.1-4.8,2.7c-1.9,0.6-3.9,1-6,1c-2.1,0-4.1-0.3-5.9-1
			c-1.8-0.6-3.4-1.6-4.7-2.8c-1.3-1.2-2.3-2.6-3.1-4.3C284.2,44.4,283.8,42.5,283.8,40.5z M293,40.6c0,0.8,0.2,1.6,0.5,2.3
			c0.3,0.7,0.7,1.3,1.2,1.8c0.5,0.5,1.1,0.9,1.8,1.2c0.7,0.3,1.4,0.4,2.2,0.4c0.8,0,1.5-0.1,2.2-0.4s1.3-0.7,1.8-1.2
			c0.5-0.5,0.9-1.1,1.2-1.8c0.3-0.7,0.5-1.4,0.5-2.2c0-0.8-0.2-1.5-0.5-2.2c-0.3-0.7-0.7-1.3-1.2-1.8c-0.5-0.5-1.1-0.9-1.8-1.2
			s-1.4-0.4-2.2-0.4c-0.8,0-1.5,0.1-2.2,0.4c-0.7,0.3-1.3,0.7-1.8,1.2c-0.5,0.5-0.9,1.1-1.2,1.8C293.2,39.1,293,39.8,293,40.6z"/>
		<path style="fill:#020203;" d="M318.6,28.3h8.7v4.1c0.9-1.5,2.1-2.6,3.4-3.4s2.9-1.2,4.7-1.2c0.2,0,0.5,0,0.7,0
			c0.3,0,0.6,0,0.9,0.1v8.4c-1.2-0.6-2.4-0.9-3.8-0.9c-2,0-3.6,0.6-4.6,1.8c-1,1.2-1.5,3-1.5,5.3v10.6h-8.7V28.3z"/>
		<path style="fill:#020203;" d="M351.7,35.6v17.5H343V35.6h-2.9v-7.3h2.9v-7.4h8.7v7.4h5v7.3H351.7z"/>
		<path style="fill:#020203;" d="M368.4,42.2c0,3.8,1.8,5.6,5.3,5.6c1.9,0,3.3-0.8,4.3-2.3h8.5c-1.7,5.7-6,8.5-12.8,8.5
			c-2.1,0-4-0.3-5.7-0.9c-1.7-0.6-3.2-1.5-4.5-2.7c-1.2-1.2-2.2-2.5-2.9-4.2c-0.7-1.6-1-3.4-1-5.4c0-2.1,0.3-3.9,1-5.6
			c0.6-1.7,1.6-3.1,2.8-4.2c1.2-1.2,2.6-2.1,4.3-2.7c1.7-0.6,3.6-0.9,5.7-0.9c2.1,0,4,0.3,5.6,0.9c1.7,0.6,3.1,1.5,4.3,2.7
			c1.2,1.2,2,2.6,2.7,4.4c0.6,1.7,0.9,3.7,0.9,5.8v0.9H368.4z M378.6,37.1c-0.3-1.2-0.9-2.2-1.8-2.9c-0.9-0.7-2-1.1-3.3-1.1
			c-1.4,0-2.5,0.4-3.3,1.1c-0.9,0.7-1.4,1.7-1.6,3H378.6z"/>
		<path style="fill:#020203;" d="M400.5,28.3v14c0,3.1,1.5,4.6,4.4,4.6c3,0,4.4-1.5,4.4-4.6v-14h8.7V44c0,3.3-1.1,5.9-3.3,7.5
			c-2.2,1.7-5.5,2.5-9.9,2.5c-4.4,0-7.7-0.8-9.9-2.5c-2.2-1.7-3.3-4.2-3.3-7.5V28.3H400.5z"/>
		<path style="fill:#020203;" d="M440.5,34.7c-1.6-0.8-3.2-1.3-4.7-1.3c-0.8,0-1.5,0.2-2,0.5c-0.5,0.3-0.7,0.8-0.7,1.3
			c0,0.3,0,0.5,0.1,0.7c0.1,0.2,0.3,0.3,0.5,0.5c0.3,0.2,0.7,0.3,1.2,0.4c0.5,0.1,1.2,0.3,2.1,0.5c2.4,0.5,4.2,1.3,5.4,2.6
			c1.2,1.2,1.8,2.8,1.8,4.8c0,1.4-0.3,2.8-0.9,3.9s-1.4,2.1-2.4,2.9c-1,0.8-2.3,1.4-3.7,1.8c-1.4,0.4-3,0.7-4.8,0.7
			c-3.3,0-6.6-0.9-9.9-2.8l3.2-6.2c2.4,1.7,4.8,2.5,7,2.5c0.8,0,1.5-0.2,2-0.5c0.5-0.4,0.8-0.8,0.8-1.4c0-0.3,0-0.6-0.1-0.8
			c-0.1-0.2-0.2-0.4-0.5-0.6c-0.3-0.2-0.6-0.3-1.1-0.5c-0.5-0.1-1.2-0.3-2-0.5c-2.7-0.5-4.6-1.4-5.7-2.4c-1.1-1.1-1.6-2.6-1.6-4.5
			c0-1.4,0.3-2.6,0.8-3.7c0.5-1.1,1.3-2.1,2.2-2.8c1-0.8,2.1-1.4,3.5-1.8c1.4-0.4,2.9-0.6,4.6-0.6c2.7,0,5.4,0.5,8,1.6L440.5,34.7z"
			/>
		<path style="fill:#020203;" d="M456.5,42.2c0,3.8,1.8,5.6,5.3,5.6c1.9,0,3.3-0.8,4.3-2.3h8.5c-1.7,5.7-6,8.5-12.8,8.5
			c-2.1,0-4-0.3-5.7-0.9c-1.7-0.6-3.2-1.5-4.5-2.7c-1.2-1.2-2.2-2.5-2.9-4.2c-0.7-1.6-1-3.4-1-5.4c0-2.1,0.3-3.9,1-5.6
			c0.6-1.7,1.6-3.1,2.8-4.2c1.2-1.2,2.6-2.1,4.3-2.7c1.7-0.6,3.6-0.9,5.7-0.9c2.1,0,4,0.3,5.6,0.9c1.7,0.6,3.1,1.5,4.3,2.7
			s2,2.6,2.7,4.4c0.6,1.7,0.9,3.7,0.9,5.8v0.9H456.5z M466.7,37.1c-0.3-1.2-0.9-2.2-1.8-2.9c-0.9-0.7-2-1.1-3.3-1.1
			c-1.4,0-2.5,0.4-3.3,1.1c-0.9,0.7-1.4,1.7-1.6,3H466.7z"/>
		<path style="fill:#020203;" d="M496.3,34.7c-1.6-0.8-3.2-1.3-4.7-1.3c-0.8,0-1.5,0.2-2,0.5c-0.5,0.3-0.7,0.8-0.7,1.3
			c0,0.3,0,0.5,0.1,0.7c0.1,0.2,0.3,0.3,0.5,0.5c0.3,0.2,0.7,0.3,1.2,0.4c0.5,0.1,1.2,0.3,2.1,0.5c2.4,0.5,4.2,1.3,5.4,2.6
			c1.2,1.2,1.8,2.8,1.8,4.8c0,1.4-0.3,2.8-0.9,3.9c-0.6,1.2-1.4,2.1-2.4,2.9c-1,0.8-2.3,1.4-3.7,1.8c-1.5,0.4-3,0.7-4.8,0.7
			c-3.4,0-6.6-0.9-9.9-2.8l3.2-6.2c2.4,1.7,4.8,2.5,7,2.5c0.8,0,1.5-0.2,2-0.5c0.5-0.4,0.8-0.8,0.8-1.4c0-0.3,0-0.6-0.1-0.8
			c-0.1-0.2-0.2-0.4-0.5-0.6c-0.3-0.2-0.6-0.3-1.1-0.5c-0.5-0.1-1.2-0.3-2-0.5c-2.7-0.5-4.6-1.4-5.7-2.4c-1.1-1.1-1.6-2.6-1.6-4.5
			c0-1.4,0.3-2.6,0.8-3.7c0.5-1.1,1.3-2.1,2.2-2.8c1-0.8,2.1-1.4,3.5-1.8c1.4-0.4,2.9-0.6,4.6-0.6c2.7,0,5.4,0.5,8,1.6L496.3,34.7z"
			/>
	</g>
</g>
</svg>
